<?xml version="1.0" standalone="no"?>
<!DOCTYPE svg PUBLIC "-//W3C//DTD SVG 20010904//EN"
 "http://www.w3.org/TR/2001/REC-SVG-20010904/DTD/svg10.dtd">
<svg version="1.0" xmlns="http://www.w3.org/2000/svg"
 width="2000.000000pt" height="2000.000000pt" viewBox="0 0 2000.000000 2000.000000"
 preserveAspectRatio="xMidYMid meet">
<metadata>
Created by potrace 1.14, written by Peter Selinger 2001-2017
</metadata>
<g transform="translate(0.000000,2000.000000) scale(0.100000,-0.100000)"
fill="#000000" stroke="none">
<path d="M846 12183 c-1 -1 -24 -4 -51 -7 -28 -2 -51 -5 -52 -6 -2 -2 -6 -3
-10 -4 -26 -6 -59 -20 -70 -30 -7 -6 -18 -16 -25 -22 -43 -37 -85 -114 -71
-128 4 -3 1 -6 -5 -6 -6 0 -9 -6 -6 -13 3 -8 7 -31 9 -53 2 -21 5 -46 7 -54 4
-19 66 -140 82 -160 7 -8 32 -48 55 -89 77 -130 127 -176 209 -187 48 -6 112
-19 137 -28 25 -9 60 -60 166 -246 80 -141 140 -220 166 -220 7 0 13 -4 13 -9
0 -7 62 -39 93 -47 4 -1 8 -2 10 -4 3 -3 38 -10 76 -16 61 -10 131 -49 131
-73 0 -6 4 -11 9 -11 5 0 11 -8 14 -17 7 -21 60 -117 74 -135 10 -13 76 -132
97 -175 6 -13 14 -23 19 -23 4 0 7 -4 7 -10 0 -14 58 -68 81 -75 11 -4 19 -11
19 -17 0 -6 3 -9 6 -5 4 3 24 -3 44 -13 21 -11 55 -24 77 -29 46 -11 312 -89
333 -98 8 -3 22 -7 30 -8 8 -2 62 -17 120 -35 58 -17 114 -33 125 -36 28 -7
38 -10 55 -17 8 -3 42 -13 75 -22 33 -9 67 -19 75 -22 8 -3 20 -7 25 -8 6 -2
30 -9 55 -16 25 -7 50 -14 55 -15 6 0 17 -4 25 -7 8 -3 31 -10 50 -16 43 -11
231 -67 285 -84 22 -6 42 -12 45 -12 3 -1 23 -6 45 -13 22 -7 58 -18 80 -24
22 -6 47 -13 55 -16 8 -3 17 -6 20 -6 3 -1 23 -7 45 -13 195 -59 243 -73 256
-73 9 0 19 -3 23 -7 3 -4 12 -8 19 -9 39 -7 113 -30 118 -37 3 -5 8 -8 10 -6
5 3 111 -22 124 -30 6 -3 15 -7 20 -8 6 -1 17 -4 25 -6 46 -10 138 -39 157
-49 13 -6 26 -9 29 -5 4 3 16 1 27 -5 12 -6 44 -17 72 -25 68 -19 68 -19 165
-48 47 -14 94 -28 105 -30 11 -3 45 -12 75 -21 63 -18 73 -21 80 -22 3 0 19
-6 35 -12 17 -7 41 -14 54 -16 14 -3 29 -8 35 -12 6 -3 20 -8 31 -9 34 -6 158
-44 201 -64 53 -23 107 -89 140 -169 14 -34 36 -79 49 -101 14 -21 25 -41 25
-44 0 -3 8 -13 18 -23 9 -10 26 -29 38 -43 46 -53 159 -129 250 -170 67 -29
77 -33 139 -59 28 -11 169 -56 208 -66 9 -2 25 -6 35 -9 9 -2 64 -17 122 -32
58 -15 108 -32 112 -38 4 -5 8 -7 8 -3 0 3 26 -1 58 -9 31 -8 62 -16 67 -18 6
-1 17 -5 25 -8 30 -11 251 -67 265 -67 8 0 15 -5 15 -12 0 -6 3 -9 6 -6 3 3
31 -1 62 -9 31 -8 64 -17 72 -18 8 -2 15 -4 15 -5 0 -1 7 -3 15 -5 29 -7 56
-15 165 -45 61 -17 117 -32 125 -34 8 -2 35 -10 60 -17 25 -7 52 -14 60 -15
22 -4 43 -10 60 -17 8 -4 33 -11 55 -16 22 -5 58 -15 80 -21 22 -6 51 -14 65
-17 14 -2 32 -7 40 -10 8 -3 20 -7 25 -8 6 -2 37 -10 70 -19 33 -10 67 -19 75
-21 8 -2 15 -4 15 -5 0 -2 16 -5 57 -13 15 -3 31 -8 36 -11 5 -3 19 -7 33 -10
43 -9 273 -74 300 -84 15 -6 29 -8 32 -5 3 3 12 1 19 -3 7 -5 18 -9 23 -10 6
-1 37 -10 70 -19 33 -9 78 -21 100 -27 22 -5 45 -11 50 -12 6 -2 17 -6 25 -9
8 -3 35 -10 60 -16 25 -7 54 -14 65 -17 41 -11 201 -13 245 -3 25 6 53 12 63
14 29 6 134 62 162 87 15 13 59 53 98 91 39 37 75 67 79 67 4 0 8 7 8 15 0 8
3 15 8 15 8 0 62 50 325 303 152 147 194 174 234 153 19 -10 145 -128 432
-403 58 -57 107 -103 108 -103 1 0 34 -31 73 -70 39 -38 75 -70 80 -70 4 0 13
-7 20 -15 14 -17 90 -54 155 -75 44 -15 229 -19 285 -7 19 4 60 15 90 24 30 9
63 18 72 19 9 2 65 18 125 34 59 17 116 33 126 35 10 2 28 7 40 11 12 5 27 8
32 9 6 0 28 6 50 13 22 7 92 26 155 43 63 16 122 33 130 36 8 3 24 8 35 10 11
2 68 17 128 33 59 17 115 32 125 34 9 1 24 6 32 9 8 4 58 18 110 31 52 14 122
33 155 42 33 9 65 17 70 18 6 2 30 8 55 15 42 12 68 19 97 25 7 1 16 5 19 9 4
4 17 7 29 7 12 0 25 3 29 8 4 4 11 7 14 7 8 1 81 17 102 22 8 3 22 5 30 7 9 1
20 5 25 8 9 5 62 21 115 34 8 2 31 8 50 13 79 22 116 32 139 37 14 3 28 7 33
10 5 3 21 7 36 10 15 3 34 7 42 11 17 7 25 9 60 16 14 3 36 10 50 15 14 5 27
9 30 9 4 -1 83 18 118 29 7 2 14 4 17 5 2 1 42 12 87 26 46 13 88 26 93 27 38
10 101 31 105 36 3 3 11 6 19 8 8 2 30 10 50 19 20 9 41 17 47 18 6 0 22 8 37
18 14 9 29 17 31 17 10 0 111 64 114 72 2 4 9 8 15 8 7 0 39 29 72 64 72 77
88 96 80 96 -4 0 3 12 14 26 12 15 21 30 21 34 0 4 10 29 22 56 12 27 21 52
20 57 -1 4 3 7 8 7 6 0 10 6 10 14 0 7 20 32 44 54 35 32 64 47 142 71 55 16
110 32 124 35 14 2 39 10 55 16 17 7 37 14 45 15 8 2 56 15 105 30 50 15 95
28 100 30 6 1 17 5 25 8 8 3 24 8 35 10 24 6 147 42 315 92 234 69 325 96 340
100 8 2 46 13 84 25 38 12 78 24 90 26 38 9 131 36 201 60 34 11 82 25 142 41
28 7 39 10 53 16 14 5 176 53 210 61 17 5 119 35 225 66 39 12 79 23 90 26 29
7 38 10 55 17 8 3 35 12 60 18 53 15 44 12 100 28 25 7 68 19 95 28 73 22 75
22 80 23 3 1 19 6 37 11 18 6 40 12 48 14 8 2 27 8 43 14 15 6 27 7 27 4 0 -4
5 -2 12 5 7 7 22 12 34 12 13 0 26 5 29 10 4 6 11 8 16 4 5 -3 17 0 26 8 9 7
18 12 20 10 2 -2 29 4 61 14 31 9 63 17 70 17 6 0 12 4 12 9 0 5 5 6 10 3 6
-3 16 -3 23 2 6 4 17 8 24 9 50 8 193 64 193 76 0 4 4 7 9 5 15 -4 87 69 101
102 7 17 16 31 20 31 4 0 11 11 14 25 4 14 11 25 17 25 6 0 8 4 4 9 -3 5 0 16
7 23 7 8 21 29 32 48 10 19 32 60 49 90 61 112 95 145 161 156 22 3 49 10 62
14 12 5 25 6 28 3 3 -4 6 -1 6 6 0 7 4 10 8 7 5 -3 31 6 58 18 60 28 146 111
175 169 29 56 136 244 163 284 11 18 27 33 34 33 6 0 12 4 12 9 0 9 22 16 85
26 73 13 93 19 137 43 26 14 50 33 54 44 3 10 9 16 14 13 4 -3 11 6 14 20 4
14 11 25 16 25 6 0 10 4 10 9 0 4 25 48 55 97 30 49 64 109 75 134 11 25 24
52 29 60 4 8 8 47 7 85 -2 130 -79 211 -221 231 -49 8 -7804 8 -7870 0 -33 -3
-70 -8 -82 -11 -13 -3 -32 -7 -43 -9 -11 -3 -25 -8 -31 -12 -7 -4 -19 -7 -28
-8 -22 -2 -132 -57 -155 -78 -11 -10 -34 -28 -51 -40 -18 -12 -41 -34 -51 -50
-10 -15 -25 -28 -32 -28 -7 0 -10 -4 -7 -10 3 -5 2 -10 -3 -10 -5 0 -14 -10
-20 -22 -6 -13 -26 -48 -43 -78 -31 -53 -73 -160 -63 -160 14 0 -29 -60 -47
-65 -11 -4 -378 -7 -815 -7 -745 0 -796 1 -815 18 -10 9 -19 24 -19 33 -1 65
-91 237 -169 322 -121 132 -247 192 -451 215 -48 6 -7798 12 -7804 7z"/>
</g>
</svg>
